<svg width="46" height="46" viewBox="0 0 46 46" fill="none" xmlns="http://www.w3.org/2000/svg">
<path d="M16.8661 21.4664C12.632 21.4664 9.19948 18.0339 9.19948 13.7997V7.66641C9.19948 6.8197 9.88611 6.13307 10.7328 6.13307H12.2661C13.1129 6.13307 13.7995 5.44645 13.7995 4.59974C13.7995 3.75303 13.1129 3.06641 12.2661 3.06641H10.7328C8.19239 3.06641 6.13281 5.12598 6.13281 7.66641V13.7997C6.1368 17.316 7.86793 20.6062 10.7635 22.6011C13.533 25.0428 15.1838 28.5105 15.3328 32.1997C15.3328 38.1276 20.1383 42.9331 26.0661 42.9331C31.994 42.9331 36.7995 38.1276 36.7995 32.1997V30.4517C40.0793 29.605 42.0514 26.2596 41.2047 22.9798C40.3577 19.7 37.0126 17.7278 33.7328 18.5745C30.453 19.4216 28.4808 22.7667 29.3275 26.0465C29.8854 28.2069 31.5723 29.8939 33.7328 30.4517V32.1997C33.7328 36.4339 30.3003 39.8664 26.0661 39.8664C21.832 39.8664 18.3995 36.4339 18.3995 32.1997C18.5562 28.5059 20.2186 25.0372 22.9995 22.6011C25.8834 20.5992 27.6025 17.3105 27.5995 13.7997V7.66641C27.5995 5.12598 25.5399 3.06641 22.9995 3.06641H21.4661C20.6194 3.06641 19.9328 3.75303 19.9328 4.59974C19.9328 5.44645 20.6194 6.13307 21.4661 6.13307H22.9995C23.8462 6.13307 24.5328 6.8197 24.5328 7.66641V13.7997C24.5328 18.0339 21.1003 21.4664 16.8661 21.4664ZM35.2661 27.5997C33.5724 27.5997 32.1995 26.2268 32.1995 24.5331C32.1995 22.8394 33.5724 21.4664 35.2661 21.4664C36.9599 21.4664 38.3328 22.8394 38.3328 24.5331C38.3328 26.2268 36.9599 27.5997 35.2661 27.5997Z" fill="#020A13"/>
</svg>
