<svg width="40" height="40" viewBox="0 0 40 40" fill="none" xmlns="http://www.w3.org/2000/svg">
<rect width="40" height="40" rx="8" fill="white"/>
<g clip-path="url(#clip0_5_18346)">
<path d="M19.999 15.4728C21.7087 15.4728 23.0995 14.0819 23.0995 12.3723C23.0995 10.6627 21.7086 9.27173 19.999 9.27173C18.2893 9.27173 16.8984 10.6627 16.8984 12.3723C16.8984 14.0819 18.2893 15.4728 19.999 15.4728Z" fill="#020A13"/>
<path d="M14.9985 22.9407H24.9988C25.4122 22.9407 25.7473 22.6056 25.7473 22.1922C25.7473 19.0224 23.1684 16.4436 19.9987 16.4436C16.8289 16.4436 14.25 19.0224 14.25 22.1922C14.25 22.6056 14.5851 22.9407 14.9985 22.9407Z" fill="#020A13"/>
<path d="M23.0219 25.8136L21.3985 25.5777L20.6725 24.1067C20.3984 23.5512 19.6042 23.5515 19.3302 24.1067L18.6042 25.5777L16.9809 25.8136C16.3679 25.9027 16.1228 26.6581 16.5661 27.0902L17.7407 28.2352L17.4634 29.852C17.3587 30.4626 18.0014 30.9291 18.5493 30.641L20.0013 29.8777L21.4533 30.641C21.9969 30.9268 22.6448 30.4671 22.5393 29.852L22.262 28.2352L23.4366 27.0902C23.8802 26.6578 23.6345 25.9026 23.0219 25.8136Z" fill="#020A13"/>
<path d="M14.682 25.8138L13.0586 25.5779L12.3326 24.1069C12.0585 23.5515 11.2643 23.5518 10.9903 24.1069L10.2644 25.5779L8.64099 25.8138C8.02801 25.9029 7.78294 26.6583 8.2262 27.0904L9.40084 28.2354L9.12352 29.8522C9.0188 30.4628 9.66151 30.9293 10.2095 30.6412L11.6615 29.8779L13.1135 30.6412C13.657 30.927 14.3049 30.4673 14.1994 29.8522L13.9221 28.2354L15.0968 27.0904C15.5404 26.658 15.2946 25.9028 14.682 25.8138Z" fill="#020A13"/>
<path d="M31.3597 25.8137L29.7364 25.5777L29.0104 24.1068C28.7856 23.6511 28.2893 23.6895 28.3393 23.6895C28.0544 23.6895 27.7942 23.8513 27.6681 24.1068L26.9421 25.5777L25.3187 25.8137C24.7057 25.9027 24.4607 26.6582 24.9039 27.0903L26.0787 28.2353L25.8014 29.8521C25.6966 30.4626 26.3393 30.9291 26.8873 30.6411L28.3393 29.8777L29.7913 30.6411C30.3348 30.9268 30.9828 30.4672 30.8773 29.8521L30.5999 28.2353L31.7746 27.0903C32.2181 26.6579 31.9724 25.9027 31.3597 25.8137Z" fill="#020A13"/>
</g>
<defs>
<clipPath id="clip0_5_18346">
<rect width="24" height="24" fill="white" transform="translate(8 8)"/>
</clipPath>
</defs>
</svg>
