<svg width="40" height="40" viewBox="0 0 40 40" fill="none" xmlns="http://www.w3.org/2000/svg">
<rect width="40" height="40" rx="8" fill="white"/>
<g clip-path="url(#clip0_5_18311)">
<path d="M18.2811 14.6388C18.6202 14.9778 18.6202 15.5327 18.2811 15.8717L16.696 17.4569C16.3569 17.7959 15.8021 17.7959 15.463 17.4569L9.07848 11.0723C8.73947 10.7333 8.73947 10.1784 9.07848 9.83936L10.6636 8.25426C11.0027 7.91525 11.5574 7.91525 11.8965 8.25426L18.2811 14.6388Z" fill="#020A13"/>
<path d="M19.9285 19.8345C16.5691 19.8345 13.8457 22.5579 13.8457 25.9173C13.8457 29.2767 16.5691 32.0001 19.9285 32.0001C23.2879 32.0001 26.0112 29.2768 26.0112 25.9173C26.0112 22.5579 23.2879 19.8345 19.9285 19.8345ZM23.006 25.2427L22.1332 25.8769C21.7235 26.1745 21.5165 26.8119 21.6728 27.2935L22.0062 28.3195C22.1627 28.8011 21.9555 28.9515 21.546 28.6539L20.6731 28.0198C20.2635 27.7222 19.5932 27.7222 19.1837 28.0198L18.3108 28.6539C17.9013 28.9515 17.6941 28.8011 17.8506 28.3195L18.184 27.2935C18.3404 26.8119 18.1333 26.1745 17.7237 25.8769L16.8509 25.2427C16.4413 24.9452 16.5204 24.7017 17.0266 24.7017H18.1056C18.6118 24.7017 19.1541 24.3077 19.3105 23.8262L19.6439 22.8002C19.8004 22.3187 20.0564 22.3187 20.2128 22.8002L20.5462 23.8262C20.7026 24.3077 21.2449 24.7017 21.7512 24.7017H22.8301C23.3365 24.7017 23.4156 24.9452 23.006 25.2427Z" fill="#020A13"/>
<path d="M30.9219 9.86593L29.3368 8.28083C28.9977 7.94175 28.4419 7.94079 28.1016 8.27858L18.4409 17.8695C18.4409 17.8695 17.6643 18.6083 18.7892 18.2913C19.2421 18.1636 19.7242 18.1228 20.2154 18.1228C21.1614 18.1228 21.9388 18.2835 22.7372 18.6688C22.8222 18.7098 23.0662 18.8522 23.4306 18.5315L30.9196 11.0966C31.2599 10.7587 31.2609 10.205 30.9219 9.86593Z" fill="#020A13"/>
</g>
<defs>
<clipPath id="clip0_5_18311">
<rect width="24" height="24" fill="white" transform="translate(8 8)"/>
</clipPath>
</defs>
</svg>
