<svg width="40" height="40" viewBox="0 0 40 40" fill="none" xmlns="http://www.w3.org/2000/svg">
<rect width="40" height="40" rx="8" fill="white"/>
<path d="M17 10C14.38 10 12.25 12.13 12.25 14.75C12.25 17.32 14.26 19.4 16.88 19.49C16.96 19.48 17.04 19.48 17.1 19.49C17.12 19.49 17.13 19.49 17.15 19.49C17.16 19.49 17.16 19.49 17.17 19.49C19.73 19.4 21.74 17.32 21.75 14.75C21.75 12.13 19.62 10 17 10Z" fill="#020A13"/>
<path d="M22.0809 22.1489C19.2909 20.2889 14.7409 20.2889 11.9309 22.1489C10.6609 22.9989 9.96094 24.1489 9.96094 25.3789C9.96094 26.6089 10.6609 27.7489 11.9209 28.5889C13.3209 29.5289 15.1609 29.9989 17.0009 29.9989C18.8409 29.9989 20.6809 29.5289 22.0809 28.5889C23.3409 27.7389 24.0409 26.5989 24.0409 25.3589C24.0309 24.1289 23.3409 22.9889 22.0809 22.1489Z" fill="#020A13"/>
<path d="M27.9894 15.3381C28.1494 17.2781 26.7694 18.9781 24.8594 19.2081C24.8494 19.2081 24.8494 19.2081 24.8394 19.2081H24.8094C24.7494 19.2081 24.6894 19.2081 24.6394 19.2281C23.6694 19.2781 22.7794 18.9681 22.1094 18.3981C23.1394 17.4781 23.7294 16.0981 23.6094 14.5981C23.5394 13.7881 23.2594 13.0481 22.8394 12.4181C23.2194 12.2281 23.6594 12.1081 24.1094 12.0681C26.0694 11.8981 27.8194 13.3581 27.9894 15.3381Z" fill="#020A13"/>
<path d="M29.9883 24.5904C29.9083 25.5604 29.2883 26.4004 28.2483 26.9704C27.2483 27.5204 25.9883 27.7804 24.7383 27.7504C25.4583 27.1004 25.8783 26.2904 25.9583 25.4304C26.0583 24.1904 25.4683 23.0004 24.2883 22.0504C23.6183 21.5204 22.8383 21.1004 21.9883 20.7904C24.1983 20.1504 26.9783 20.5804 28.6883 21.9604C29.6083 22.7004 30.0783 23.6304 29.9883 24.5904Z" fill="#020A13"/>
</svg>
