<svg width="40" height="40" viewBox="0 0 40 40" fill="none" xmlns="http://www.w3.org/2000/svg">
<rect width="40" height="40" rx="8" fill="white"/>
<g clip-path="url(#clip0_5_18327)">
<path d="M15.2716 15.313C15.2716 16.9929 14.1185 18.3548 12.6962 18.3548C11.2739 18.3548 10.1211 16.9929 10.1211 15.313C10.1211 13.6332 11.2739 12.2715 12.6962 12.2715C14.1185 12.2715 15.2716 13.6332 15.2716 15.313Z" fill="#020A13"/>
<path d="M15.6304 20.6769C15.8164 20.5635 16.0222 20.4896 16.2353 20.4543C15.8026 19.8437 15.496 19.1888 15.3188 18.4049C15.2704 18.1185 14.8782 18.0849 14.5866 18.3225C14.0411 18.7672 13.4047 19.0648 12.6948 19.0648C11.9712 19.0648 11.3056 18.7769 10.7719 18.2951C10.6016 18.1413 10.3507 18.118 10.1548 18.2377C9.1416 18.8566 8.37468 19.8389 8.04012 21.0057C7.95024 21.3183 8.01336 21.6561 8.20944 21.9163C8.40576 22.1762 8.71248 22.3294 9.03816 22.3294H13.6783C14.2338 21.6886 14.8894 21.1292 15.6304 20.6769Z" fill="#020A13"/>
<path d="M24.7305 15.313C24.7305 16.9929 25.8834 18.3548 27.3058 18.3548C28.7283 18.3548 29.881 16.9929 29.881 15.313C29.881 13.6332 28.7283 12.2715 27.3058 12.2715C25.8834 12.2715 24.7305 13.6332 24.7305 15.313Z" fill="#020A13"/>
<path d="M24.3705 20.6769C24.1845 20.5635 23.9786 20.4896 23.7656 20.4543C24.1983 19.8437 24.5049 19.1888 24.6821 18.4049C24.7307 18.1185 25.1228 18.0849 25.4144 18.3225C25.9599 18.7672 26.5962 19.0648 27.3061 19.0648C28.0296 19.0648 28.6953 18.7769 29.2291 18.2951C29.3994 18.1413 29.6502 18.118 29.8461 18.2377C30.8594 18.8566 31.6265 19.8389 31.9608 21.0057C32.0505 21.3183 31.9875 21.6561 31.7916 21.9163C31.5951 22.1762 31.2885 22.3294 30.963 22.3294H26.3226C25.7671 21.6886 25.1117 21.1292 24.3705 20.6769Z" fill="#020A13"/>
<path d="M27.017 25.6941C26.5133 23.9356 25.3707 22.4487 23.8579 21.4951C23.5595 21.3071 23.1721 21.3375 22.9074 21.5708C22.0955 22.2859 21.0908 22.7115 20 22.7115C18.8878 22.7115 17.8651 22.2692 17.0449 21.5289C16.7831 21.2924 16.3978 21.2567 16.0967 21.4408C14.5394 22.3917 13.3608 23.9013 12.8469 25.6942C12.7087 26.1752 12.8056 26.6936 13.1068 27.0937C13.4087 27.4933 13.8799 27.7286 14.3806 27.7286H25.4833C25.9841 27.7286 26.4557 27.494 26.7575 27.0937C27.0588 26.6935 27.1552 26.1755 27.017 25.6941Z" fill="#020A13"/>
<path d="M23.9582 16.9456C23.9582 19.5272 22.1862 21.6202 20.0004 21.6202C17.8148 21.6202 16.043 19.5272 16.043 16.9456C16.043 14.3638 17.8148 12.2715 20.0004 12.2715C22.1864 12.2715 23.9582 14.3639 23.9582 16.9456Z" fill="#020A13"/>
</g>
<defs>
<clipPath id="clip0_5_18327">
<rect width="24" height="24" fill="white" transform="translate(8 8)"/>
</clipPath>
</defs>
</svg>
