<svg width="16" height="16" viewBox="0 0 16 16" fill="none" xmlns="http://www.w3.org/2000/svg">
<path d="M5.33464 8C4.96645 8 4.66797 8.29847 4.66797 8.66667C4.66797 9.03487 4.96645 9.33333 5.33464 9.33333H10.668C11.0362 9.33333 11.3346 9.03487 11.3346 8.66667C11.3346 8.29847 11.0362 8 10.668 8H5.33464Z" fill="#373D45"/>
<path d="M4.66797 11.3332C4.66797 10.965 4.96645 10.6665 5.33464 10.6665H8.0013C8.3695 10.6665 8.66797 10.965 8.66797 11.3332C8.66797 11.7014 8.3695 11.9998 8.0013 11.9998H5.33464C4.96645 11.9998 4.66797 11.7014 4.66797 11.3332Z" fill="#373D45"/>
<path fill-rule="evenodd" clip-rule="evenodd" d="M4.66536 1.3335C5.03355 1.3335 5.33203 1.63198 5.33203 2.00016V2.66683H10.6654V2.00016C10.6654 1.63198 10.9638 1.3335 11.332 1.3335C11.7002 1.3335 11.9987 1.63198 11.9987 2.00016V2.73351C13.5202 3.04236 14.6654 4.38752 14.6654 6.00016V11.3335C14.6654 13.1744 13.173 14.6668 11.332 14.6668H4.66536C2.82442 14.6668 1.33203 13.1744 1.33203 11.3335V6.00016C1.33203 4.38752 2.4772 3.04236 3.9987 2.73351V2.00016C3.9987 1.63198 4.29718 1.3335 4.66536 1.3335ZM13.332 6.66683H2.66536V11.3335C2.66536 12.4381 3.5608 13.3335 4.66536 13.3335H11.332C12.4366 13.3335 13.332 12.4381 13.332 11.3335V6.66683Z" fill="#373D45"/>
</svg>
